<svg width="1920" height="1080" viewBox="0 0 1920 1080" fill="none" xmlns="http://www.w3.org/2000/svg">
<rect width="1920" height="1080" fill="white"/>
<g clip-path="url(#clip0_2797_32580)">
<rect x="211" y="262" width="441" height="122" fill="#F0F4F9"/>
<path d="M341.531 319.609C344.198 316.818 346.594 313.359 348.719 309.234L351.156 309.672C350.615 310.661 350.062 311.62 349.5 312.547H358.156V314.641C356.844 316.443 355.724 317.901 354.797 319.016H360.844V330.266H358.594V328.984H346.125V335.234C346.125 336.526 346.76 337.172 348.031 337.172H357.531C359.031 337.172 359.896 336.651 360.125 335.609C360.333 334.734 360.51 333.276 360.656 331.234C361.365 331.547 362.167 331.849 363.062 332.141C362.812 334.266 362.573 335.755 362.344 336.609C361.906 338.38 360.615 339.266 358.469 339.266H347.5C345.083 339.266 343.875 338.089 343.875 335.734V320.469C343.406 321.01 342.938 321.536 342.469 322.047C342.24 321.193 341.927 320.38 341.531 319.609ZM335.719 327.516C338.01 327.307 340.125 327.057 342.062 326.766C341.979 327.661 341.906 328.37 341.844 328.891C339.406 329.182 336.448 329.578 332.969 330.078L332.469 327.797C333.573 327.068 335.141 324.917 337.172 321.344C335.286 321.469 333.75 321.589 332.562 321.703L331.938 319.641C333.917 316.578 335.615 313.193 337.031 309.484L339.469 310.359C338.01 313.464 336.385 316.495 334.594 319.453C335.375 319.453 336.599 319.432 338.266 319.391C338.974 318.068 339.74 316.589 340.562 314.953L342.75 315.984C340.271 320.422 337.927 324.266 335.719 327.516ZM355.312 314.703H348.156C347.146 316.245 346.115 317.682 345.062 319.016H352.109C353.026 317.88 354.094 316.443 355.312 314.703ZM358.594 321.172H353.469V326.828H358.594V321.172ZM346.125 326.828H351.25V321.172H346.125V326.828ZM332.156 335.016C335.552 334.37 339 333.651 342.5 332.859C342.417 334.005 342.375 334.786 342.375 335.203C338.521 335.995 335.344 336.703 332.844 337.328L332.156 335.016ZM394.412 325.141C393.433 325.88 392.386 326.615 391.272 327.344C392.386 331.073 394.204 333.932 396.725 335.922C395.975 336.547 395.392 337.224 394.975 337.953C392.725 335.766 390.97 332.562 389.709 328.344C389.178 328.667 388.636 328.99 388.084 329.312C388.553 330.906 388.787 332.672 388.787 334.609C388.787 338.109 387.381 339.859 384.569 339.859C383.777 339.859 382.61 339.849 381.069 339.828C380.985 338.953 380.85 338.109 380.662 337.297C382.225 337.422 383.412 337.484 384.225 337.484C385.767 337.484 386.537 336.516 386.537 334.578C386.537 333.536 386.465 332.547 386.319 331.609C383.725 334.422 380.412 336.682 376.381 338.391C376.027 337.724 375.621 337.089 375.162 336.484C379.496 334.682 383.048 332.333 385.819 329.438C385.621 328.792 385.381 328.177 385.1 327.594C382.392 329.75 379.412 331.557 376.162 333.016C375.767 332.328 375.36 331.703 374.944 331.141C378.173 329.911 381.241 328.188 384.147 325.969C383.834 325.521 383.491 325.094 383.116 324.688C381.189 325.781 379.162 326.734 377.037 327.547C376.517 326.797 376.069 326.193 375.694 325.734C378.662 324.87 381.308 323.745 383.631 322.359H375.787V320.359H389.459L389.756 318.141H378.475L380.037 309.703H382.225L381.819 311.828H392.756L391.616 320.359H396.037V322.359H386.756C386.11 322.818 385.449 323.26 384.772 323.688C385.866 324.781 386.735 326.036 387.381 327.453C389.329 326.307 391.215 325.026 393.037 323.609L394.412 325.141ZM369.319 327.797C371.152 327.589 373.246 327.318 375.6 326.984C375.517 327.922 375.475 328.661 375.475 329.203C371.454 329.599 368.579 329.995 366.85 330.391L366.412 328.203C368.027 326.089 369.621 323.792 371.194 321.312C368.746 321.417 367.09 321.557 366.225 321.734L365.787 319.578C367.6 316.911 369.277 313.578 370.819 309.578L373.037 310.328C371.433 313.766 369.829 316.818 368.225 319.484C369.183 319.464 370.579 319.432 372.412 319.391C373.235 318.036 374.058 316.63 374.881 315.172L376.975 316.172C374.683 319.984 372.131 323.859 369.319 327.797ZM381.006 316.203H390.022L390.35 313.766H381.459L381.006 316.203ZM365.85 334.703C369.308 334.286 372.496 333.786 375.412 333.203C375.35 333.661 375.319 334.432 375.319 335.516C371.485 336.12 368.527 336.693 366.444 337.234L365.85 334.703ZM400.731 313.516H412.262V309.516H414.856V313.516H426.419V331.078H414.856V334.734C414.856 336.005 415.523 336.641 416.856 336.641H424.169C425.585 336.641 426.45 336.172 426.762 335.234C427.096 334.214 427.335 332.745 427.481 330.828C428.085 331.099 428.95 331.422 430.075 331.797C429.825 333.464 429.544 334.891 429.231 336.078C428.71 338.036 427.294 339.016 424.981 339.016H416.669C413.731 339.016 412.262 337.578 412.262 334.703V331.078H403.325V333.234H400.731V313.516ZM423.825 328.734V323.391H414.856V328.734H423.825ZM403.325 328.734H412.262V323.391H403.325V328.734ZM423.825 315.859H414.856V321.172H423.825V315.859ZM403.325 321.172H412.262V315.859H403.325V321.172ZM441.8 336.609H445.8V311.359H460.738V336.609H463.738V338.828H441.8V336.609ZM443.613 328.141C444.217 332.161 443.227 334.391 440.644 334.828C439.706 334.995 438.654 335.016 437.488 334.891C437.321 334.036 437.092 333.161 436.8 332.266C437.904 332.516 438.863 332.599 439.675 332.516C441.133 332.37 441.613 330.88 441.113 328.047C440.821 326.359 439.883 324.484 438.3 322.422C439.217 319.339 440.071 316.307 440.863 313.328H436.675V340.203H434.3V311.141H443.456V313.328C442.477 316.536 441.581 319.432 440.769 322.016C442.435 324.286 443.383 326.328 443.613 328.141ZM448.238 328.203H458.3V321.984H448.238V328.203ZM448.238 336.609H458.3V330.391H448.238V336.609ZM448.238 313.578V319.797H458.3V313.578H448.238ZM475.462 315.609H486.869C486.848 313.682 486.837 311.589 486.837 309.328H489.306C489.265 311.807 489.254 313.901 489.275 315.609H496.994V317.891H489.322C489.53 326.703 490.515 332.703 492.275 335.891C492.921 336.974 493.462 337.516 493.9 337.516C494.254 337.516 494.504 337.099 494.65 336.266C494.858 334.995 495.015 333.339 495.119 331.297C496.015 331.651 496.796 331.922 497.462 332.109C497.192 334.464 496.931 336.255 496.681 337.484C496.348 339.234 495.473 340.109 494.056 340.109C492.89 340.109 491.733 339.307 490.587 337.703C488.462 334.62 487.244 328.016 486.931 317.891H475.462V315.609ZM474.9 335.672C476.473 335.464 478.119 335.224 479.837 334.953V325.266H475.369V323.047H486.181V325.266H482.15V334.594C483.785 334.323 485.483 334.026 487.244 333.703C487.202 334.536 487.181 335.349 487.181 336.141C482.619 336.87 478.733 337.526 475.525 338.109L474.9 335.672ZM476.087 329.328C476.192 330.495 476.306 331.505 476.431 332.359C475.035 333.693 473.64 335.078 472.244 336.516C471.598 337.182 471.056 337.818 470.619 338.422L468.869 336.422C469.598 335.609 469.962 334.609 469.962 333.422V321.922H466.337V319.703H472.337V333.141C473.462 332.057 474.712 330.786 476.087 329.328ZM469.4 310.141C471.275 311.974 472.921 313.703 474.337 315.328L472.275 317.109C470.962 315.38 469.41 313.589 467.619 311.734L469.4 310.141ZM490.494 311.516L491.931 310.016C493.598 311.245 494.921 312.328 495.9 313.266L494.181 315.016C493.035 313.786 491.806 312.62 490.494 311.516ZM504.312 315.422L503.594 324.016H506.75L507.562 313.484H500.469V311.359H509.938L508.969 324.016H510.938C510.792 328.411 510.656 332.026 510.531 334.859C510.469 338.026 509.094 339.609 506.406 339.609C505.281 339.609 503.958 339.578 502.438 339.516C502.333 338.745 502.198 337.922 502.031 337.047C503.531 337.234 504.865 337.328 506.031 337.328C507.49 337.328 508.26 336.443 508.344 334.672C508.469 332.38 508.573 329.536 508.656 326.141H501.156L502.156 315.422H504.312ZM511.188 336.516H522.469C523.969 332.807 525.302 328.932 526.469 324.891L528.844 325.641C527.615 329.37 526.312 332.995 524.938 336.516H530.438V338.672H511.188V336.516ZM522.531 309.609L521.938 310.609C524.458 315.089 527.583 318.349 531.312 320.391C530.646 321.224 530.094 321.953 529.656 322.578C525.99 319.87 523 316.609 520.688 312.797C518.562 316.568 515.594 319.953 511.781 322.953C511.406 322.411 510.885 321.755 510.219 320.984C514.365 318.109 517.542 314.318 519.75 309.609H522.531ZM514.375 321.109H527.25V323.266H514.375V321.109ZM518.156 325.109L520.375 324.516C521.25 327.641 521.969 330.37 522.531 332.703L520.25 333.359C519.646 330.484 518.948 327.734 518.156 325.109ZM512.781 326.516L514.969 325.828C515.99 328.786 516.844 331.422 517.531 333.734L515.219 334.516C514.531 331.849 513.719 329.182 512.781 326.516ZM499.688 330.828C502.104 330.349 504.76 329.766 507.656 329.078C507.635 329.911 507.646 330.651 507.688 331.297C505.312 331.797 502.802 332.411 500.156 333.141L499.688 330.828Z" fill="#474748"/>
</g>
<rect x="740" y="263" width="441" height="122" rx="5" fill="#F0F4F9"/>
<path d="M853.481 323.734C856.721 323.099 859.643 322.297 862.247 321.328C861.424 320.13 860.684 318.75 860.028 317.188L854.45 317.953L854.169 315.766L859.247 315.062C858.83 313.792 858.46 312.422 858.137 310.953L860.356 310.328C860.69 311.943 861.096 313.417 861.575 314.75L872.794 313.203L873.075 315.391L862.419 316.859C863.044 318.214 863.747 319.391 864.528 320.391C866.861 319.339 868.898 318.13 870.637 316.766L872.231 318.422C870.481 319.776 868.46 320.995 866.169 322.078C867.19 322.953 867.966 323.531 868.497 323.812C869.028 324.094 869.643 324.266 870.341 324.328C870.966 324.255 871.408 323.859 871.669 323.141C871.981 322.266 872.262 321.109 872.512 319.672C873.367 320.089 874.127 320.401 874.794 320.609C874.481 321.984 874.137 323.182 873.762 324.203C873.065 325.651 871.95 326.422 870.419 326.516C869.387 326.464 868.585 326.307 868.012 326.047C866.429 325.464 865.002 324.5 863.731 323.156C861.075 324.219 858.106 325.13 854.825 325.891C854.387 324.995 853.94 324.276 853.481 323.734ZM854.262 327.672H873.825V329.859H867.294V336.766C867.294 337.766 867.69 338.266 868.481 338.266H869.856C870.856 338.266 871.45 337.755 871.637 336.734C871.804 335.797 871.95 334.495 872.075 332.828C872.867 333.203 873.637 333.516 874.387 333.766C874.179 335.37 873.971 336.641 873.762 337.578C873.429 339.453 872.304 340.391 870.387 340.391H867.887C865.929 340.391 864.95 339.245 864.95 336.953V329.859H860.731C860.554 335.172 858.242 338.995 853.794 341.328C853.356 340.62 852.835 339.922 852.231 339.234C856.2 337.359 858.252 334.234 858.387 329.859H854.262V327.672ZM847.731 328.859C849.273 328.734 851.21 328.536 853.544 328.266C853.44 328.911 853.356 329.651 853.294 330.484C850.46 330.693 847.731 330.984 845.106 331.359L844.669 329.266C846.096 327.755 847.611 325.625 849.216 322.875C847.403 322.99 845.825 323.109 844.481 323.234L843.887 321.234C845.825 318.214 847.585 314.63 849.169 310.484L851.606 311.359C850.044 314.547 848.356 317.776 846.544 321.047C847.731 320.995 849.007 320.922 850.372 320.828C850.945 319.766 851.533 318.62 852.137 317.391L854.387 318.391C852.325 322.161 850.106 325.651 847.731 328.859ZM843.669 335.234C846.981 334.818 850.544 334.297 854.356 333.672C854.252 334.38 854.179 335.13 854.137 335.922C849.971 336.526 846.669 337.078 844.231 337.578L843.669 335.234ZM886.769 339.578V337.328H890.487V312.297H905.612V337.328H908.362V339.578H886.769ZM881.644 328.484C883.769 328.214 885.987 327.932 888.3 327.641C888.217 328.536 888.144 329.245 888.081 329.766C884.998 330.161 881.904 330.589 878.8 331.047L878.3 328.766C879.623 327.734 881.264 325.578 883.222 322.297C880.93 322.443 879.217 322.568 878.081 322.672L877.456 320.609C879.081 318.651 880.862 315.297 882.8 310.547L885.331 311.422C883.519 314.839 881.81 317.839 880.206 320.422C881.925 320.411 883.3 320.391 884.331 320.359C885.165 318.87 886.05 317.193 886.987 315.328L889.394 316.391C887.019 320.599 884.435 324.63 881.644 328.484ZM903.237 314.547H892.862V320.703H903.237V314.547ZM892.862 337.328H903.237V331.172H892.862V337.328ZM892.862 329.016H903.237V322.859H892.862V329.016ZM877.706 335.547C880.727 334.984 884.352 334.234 888.581 333.297C888.498 334.255 888.456 335.047 888.456 335.672C884.123 336.568 880.769 337.318 878.394 337.922L877.706 335.547ZM928.65 310.828L927.994 311.734C931.494 317.172 936.16 321.057 941.994 323.391C941.327 324.37 940.765 325.276 940.306 326.109C934.181 322.901 929.556 318.776 926.431 313.734C923.306 318.568 918.619 322.849 912.369 326.578C911.848 325.578 911.285 324.672 910.681 323.859C916.91 320.859 921.775 316.516 925.275 310.828H928.65ZM919.15 323.047H921.65C921.65 329.88 921.129 334.266 920.087 336.203C919.254 337.995 917.483 339.828 914.775 341.703C914.233 340.995 913.629 340.297 912.962 339.609C915.462 338.026 917.087 336.453 917.837 334.891C918.712 333.286 919.15 329.339 919.15 323.047ZM930.681 322.984H933.212V341.141H930.681V322.984ZM957.438 311.797H972.781V321.328H970.5V320.422H959.719V321.266H957.438V311.797ZM944.438 327.266C945.958 326.911 947.427 326.557 948.844 326.203V318.891H944.719V316.641H948.844V310.609H951.156V316.641H955.25V318.891H951.156V325.578C952.469 325.224 953.729 324.87 954.938 324.516C954.979 325.432 955.052 326.214 955.156 326.859C953.99 327.172 952.656 327.547 951.156 327.984V337.359C951.156 339.672 950.24 340.849 948.406 340.891C947.427 340.911 946.323 340.901 945.094 340.859C945.01 340.005 944.875 339.182 944.688 338.391C945.979 338.536 946.927 338.609 947.531 338.609C948.406 338.609 948.844 338.057 948.844 336.953V328.672C947.573 329.047 946.208 329.453 944.75 329.891L944.438 327.266ZM956.156 323.328H973.969V334.641H971.688V325.422H958.438V334.703H956.156V323.328ZM966.281 326.828C966.281 329.432 966.073 331.505 965.656 333.047C969.073 335.005 972.333 337.026 975.438 339.109L973.688 341.203C971.125 339.203 968.146 337.203 964.75 335.203C962.979 338.224 959.531 340.276 954.406 341.359C954.094 340.755 953.615 339.964 952.969 338.984C958.885 338.109 962.354 335.859 963.375 332.234C963.708 331.089 963.875 329.286 963.875 326.828H966.281ZM970.5 313.891H959.719V318.328H970.5V313.891ZM986.694 330.016C985.631 333.641 983.392 337.286 979.975 340.953C979.475 340.286 978.85 339.557 978.1 338.766C981.225 335.495 983.267 332.203 984.225 328.891C985.162 326.047 985.715 321.391 985.881 314.922H979.537V312.578H1002.51V314.953L999.475 321.047H1005.26V323.266C1003.61 327.422 1001.41 330.911 998.647 333.734C1001.74 335.943 1005.24 337.422 1009.13 338.172C1008.4 339.193 1007.86 340.089 1007.51 340.859C1002.97 339.422 999.366 337.646 996.678 335.531C993.855 337.833 990.36 339.766 986.194 341.328C985.86 340.724 985.34 339.964 984.631 339.047C988.673 337.703 992.043 335.948 994.741 333.781C991.897 330.906 989.657 327.339 988.022 323.078C987.709 325.849 987.267 328.161 986.694 330.016ZM996.444 321.359L999.662 314.922H988.506C988.485 316.078 988.449 317.188 988.397 318.25C990.47 324.229 993.22 328.844 996.647 332.094C999.251 329.562 1001.17 326.661 1002.41 323.391H996.444V321.359ZM1013.23 314.516H1024.76V310.516H1027.36V314.516H1038.92V332.078H1027.36V335.734C1027.36 337.005 1028.02 337.641 1029.36 337.641H1036.67C1038.09 337.641 1038.95 337.172 1039.26 336.234C1039.6 335.214 1039.84 333.745 1039.98 331.828C1040.59 332.099 1041.45 332.422 1042.57 332.797C1042.32 334.464 1042.04 335.891 1041.73 337.078C1041.21 339.036 1039.79 340.016 1037.48 340.016H1029.17C1026.23 340.016 1024.76 338.578 1024.76 335.703V332.078H1015.82V334.234H1013.23V314.516ZM1036.32 329.734V324.391H1027.36V329.734H1036.32ZM1015.82 329.734H1024.76V324.391H1015.82V329.734ZM1036.32 316.859H1027.36V322.172H1036.32V316.859ZM1015.82 322.172H1024.76V316.859H1015.82V322.172ZM1062.55 321.266C1062.38 321.453 1062.21 321.661 1062.02 321.891C1066.02 325.724 1070.8 328.349 1076.36 329.766C1075.68 330.807 1075.16 331.693 1074.83 332.422C1073.46 331.922 1072.15 331.37 1070.93 330.766V341.297H1068.43V339.891H1053.14V341.297H1050.64V331.047C1049.29 331.776 1047.9 332.432 1046.49 333.016C1046.11 332.245 1045.65 331.505 1045.11 330.797C1051.57 328.068 1056.51 324.755 1059.93 320.859L1062.55 321.266ZM1046.61 314.141H1059.99C1059.53 313.307 1059.01 312.411 1058.43 311.453L1060.83 310.359C1061.6 311.547 1062.33 312.807 1063.02 314.141H1074.96V319.391H1072.43V316.391H1049.11V319.516H1046.61V314.141ZM1068.43 332.328H1053.14V337.641H1068.43V332.328ZM1060.61 323.578C1058.05 326.099 1055.27 328.266 1052.27 330.078H1069.55C1065.95 328.182 1062.97 326.016 1060.61 323.578ZM1056.49 317.766L1057.99 319.797C1054.15 322.151 1050.94 323.953 1048.33 325.203C1047.96 324.516 1047.48 323.797 1046.89 323.047C1050.48 321.484 1053.68 319.724 1056.49 317.766ZM1064.83 317.797C1067.96 319.234 1071.18 320.87 1074.49 322.703L1073.05 324.922C1070.47 323.339 1067.29 321.609 1063.52 319.734L1064.83 317.797Z" fill="#3C3C3C"/>
<rect x="211" y="479" width="441" height="122" rx="5" fill="#F0F4F9"/>
<path d="M341.281 539.734C344.521 539.099 347.443 538.297 350.047 537.328C349.224 536.13 348.484 534.75 347.828 533.188L342.25 533.953L341.969 531.766L347.047 531.062C346.63 529.792 346.26 528.422 345.938 526.953L348.156 526.328C348.49 527.943 348.896 529.417 349.375 530.75L360.594 529.203L360.875 531.391L350.219 532.859C350.844 534.214 351.547 535.391 352.328 536.391C354.661 535.339 356.698 534.13 358.438 532.766L360.031 534.422C358.281 535.776 356.26 536.995 353.969 538.078C354.99 538.953 355.766 539.531 356.297 539.812C356.828 540.094 357.443 540.266 358.141 540.328C358.766 540.255 359.208 539.859 359.469 539.141C359.781 538.266 360.062 537.109 360.312 535.672C361.167 536.089 361.927 536.401 362.594 536.609C362.281 537.984 361.938 539.182 361.562 540.203C360.865 541.651 359.75 542.422 358.219 542.516C357.188 542.464 356.385 542.307 355.812 542.047C354.229 541.464 352.802 540.5 351.531 539.156C348.875 540.219 345.906 541.13 342.625 541.891C342.188 540.995 341.74 540.276 341.281 539.734ZM342.062 543.672H361.625V545.859H355.094V552.766C355.094 553.766 355.49 554.266 356.281 554.266H357.656C358.656 554.266 359.25 553.755 359.438 552.734C359.604 551.797 359.75 550.495 359.875 548.828C360.667 549.203 361.438 549.516 362.188 549.766C361.979 551.37 361.771 552.641 361.562 553.578C361.229 555.453 360.104 556.391 358.188 556.391H355.688C353.729 556.391 352.75 555.245 352.75 552.953V545.859H348.531C348.354 551.172 346.042 554.995 341.594 557.328C341.156 556.62 340.635 555.922 340.031 555.234C344 553.359 346.052 550.234 346.188 545.859H342.062V543.672ZM335.531 544.859C337.073 544.734 339.01 544.536 341.344 544.266C341.24 544.911 341.156 545.651 341.094 546.484C338.26 546.693 335.531 546.984 332.906 547.359L332.469 545.266C333.896 543.755 335.411 541.625 337.016 538.875C335.203 538.99 333.625 539.109 332.281 539.234L331.688 537.234C333.625 534.214 335.385 530.63 336.969 526.484L339.406 527.359C337.844 530.547 336.156 533.776 334.344 537.047C335.531 536.995 336.807 536.922 338.172 536.828C338.745 535.766 339.333 534.62 339.938 533.391L342.188 534.391C340.125 538.161 337.906 541.651 335.531 544.859ZM331.469 551.234C334.781 550.818 338.344 550.297 342.156 549.672C342.052 550.38 341.979 551.13 341.938 551.922C337.771 552.526 334.469 553.078 332.031 553.578L331.469 551.234ZM374.569 555.578V553.328H378.287V528.297H393.412V553.328H396.162V555.578H374.569ZM369.444 544.484C371.569 544.214 373.787 543.932 376.1 543.641C376.017 544.536 375.944 545.245 375.881 545.766C372.798 546.161 369.704 546.589 366.6 547.047L366.1 544.766C367.423 543.734 369.064 541.578 371.022 538.297C368.73 538.443 367.017 538.568 365.881 538.672L365.256 536.609C366.881 534.651 368.662 531.297 370.6 526.547L373.131 527.422C371.319 530.839 369.61 533.839 368.006 536.422C369.725 536.411 371.1 536.391 372.131 536.359C372.965 534.87 373.85 533.193 374.787 531.328L377.194 532.391C374.819 536.599 372.235 540.63 369.444 544.484ZM391.037 530.547H380.662V536.703H391.037V530.547ZM380.662 553.328H391.037V547.172H380.662V553.328ZM380.662 545.016H391.037V538.859H380.662V545.016ZM365.506 551.547C368.527 550.984 372.152 550.234 376.381 549.297C376.298 550.255 376.256 551.047 376.256 551.672C371.923 552.568 368.569 553.318 366.194 553.922L365.506 551.547ZM398.794 553.766H403.044V534.297H412.7V531.422H399.419V529.234H412.7V526.359H415.2V529.234H429.075V531.422H415.2V534.297H425.2V553.766H429.669V555.953H398.794V553.766ZM405.45 553.766H422.794V550.891H405.45V553.766ZM422.794 536.359H405.45V539.203H422.794V536.359ZM405.45 548.891H422.794V546.047H405.45V548.891ZM405.45 544.047H422.794V541.203H405.45V544.047ZM456.863 534.297C458.488 536.172 460.29 538.453 462.269 541.141C461.498 541.62 460.748 542.109 460.019 542.609C459.498 541.849 458.993 541.12 458.503 540.422C453.389 540.651 448.685 540.88 444.394 541.109C443.727 541.13 442.894 541.255 441.894 541.484L440.831 539.141C441.602 538.745 442.331 538.266 443.019 537.703C444.633 536.328 446.238 534.63 447.831 532.609H440.894V530.391H450.816C450.024 529.161 449.269 528.089 448.55 527.172L450.613 525.891C451.383 526.87 452.258 528.016 453.238 529.328L451.613 530.391H462.238V532.609H448.425L450.488 533.484C448.55 535.568 446.738 537.318 445.05 538.734C448.415 538.63 452.399 538.495 457.003 538.328C456.274 537.349 455.581 536.443 454.925 535.609L456.863 534.297ZM455.206 542.453H457.55V552.922C457.55 553.88 457.925 554.359 458.675 554.359H459.769C460.415 554.359 460.821 553.828 460.988 552.766C461.133 551.641 461.227 550.328 461.269 548.828C461.998 549.161 462.779 549.464 463.613 549.734C463.467 551.484 463.31 552.828 463.144 553.766C462.894 555.62 461.904 556.547 460.175 556.547H458.238C456.217 556.547 455.206 555.328 455.206 552.891V542.453ZM443.331 542.578H445.706C445.706 547.141 445.279 550.339 444.425 552.172C443.571 554.193 441.842 555.911 439.238 557.328C438.758 556.557 438.227 555.87 437.644 555.266C440.019 554.016 441.529 552.578 442.175 550.953C442.946 549.37 443.331 546.578 443.331 542.578ZM433.175 556.078C434.425 552.411 435.508 548.37 436.425 543.953C437.342 544.349 438.185 544.672 438.956 544.922C438.019 548.526 437.008 552.526 435.925 556.922L433.175 556.078ZM449.488 542.578H451.831V556.516H449.488V542.578ZM432.206 536.766L433.769 534.953C435.456 536.12 437.227 537.464 439.081 538.984C438.331 539.859 437.727 540.536 437.269 541.016C435.102 539.078 433.415 537.661 432.206 536.766ZM433.425 528.609L435.019 526.953C436.54 528.161 438.238 529.599 440.113 531.266L438.269 533.109C436.54 531.359 434.925 529.859 433.425 528.609ZM467.431 530.516H478.962V526.516H481.556V530.516H493.119V548.078H481.556V551.734C481.556 553.005 482.223 553.641 483.556 553.641H490.869C492.285 553.641 493.15 553.172 493.462 552.234C493.796 551.214 494.035 549.745 494.181 547.828C494.785 548.099 495.65 548.422 496.775 548.797C496.525 550.464 496.244 551.891 495.931 553.078C495.41 555.036 493.994 556.016 491.681 556.016H483.369C480.431 556.016 478.962 554.578 478.962 551.703V548.078H470.025V550.234H467.431V530.516ZM490.525 545.734V540.391H481.556V545.734H490.525ZM470.025 545.734H478.962V540.391H470.025V545.734ZM490.525 532.859H481.556V538.172H490.525V532.859ZM470.025 538.172H478.962V532.859H470.025V538.172ZM508.5 553.609H512.5V528.359H527.438V553.609H530.438V555.828H508.5V553.609ZM510.312 545.141C510.917 549.161 509.927 551.391 507.344 551.828C506.406 551.995 505.354 552.016 504.188 551.891C504.021 551.036 503.792 550.161 503.5 549.266C504.604 549.516 505.562 549.599 506.375 549.516C507.833 549.37 508.312 547.88 507.812 545.047C507.521 543.359 506.583 541.484 505 539.422C505.917 536.339 506.771 533.307 507.562 530.328H503.375V557.203H501V528.141H510.156V530.328C509.177 533.536 508.281 536.432 507.469 539.016C509.135 541.286 510.083 543.328 510.312 545.141ZM514.938 545.203H525V538.984H514.938V545.203ZM514.938 553.609H525V547.391H514.938V553.609ZM514.938 530.578V536.797H525V530.578H514.938Z" fill="#3C3C3C"/>
<rect x="740" y="479" width="441" height="122" rx="5" fill="#F0F4F9"/>
<path d="M824.394 539.734C827.633 539.099 830.555 538.297 833.159 537.328C832.336 536.13 831.597 534.75 830.941 533.188L825.363 533.953L825.081 531.766L830.159 531.062C829.743 529.792 829.373 528.422 829.05 526.953L831.269 526.328C831.602 527.943 832.008 529.417 832.488 530.75L843.706 529.203L843.988 531.391L833.331 532.859C833.956 534.214 834.659 535.391 835.441 536.391C837.774 535.339 839.81 534.13 841.55 532.766L843.144 534.422C841.394 535.776 839.373 536.995 837.081 538.078C838.102 538.953 838.878 539.531 839.409 539.812C839.941 540.094 840.555 540.266 841.253 540.328C841.878 540.255 842.321 539.859 842.581 539.141C842.894 538.266 843.175 537.109 843.425 535.672C844.279 536.089 845.04 536.401 845.706 536.609C845.394 537.984 845.05 539.182 844.675 540.203C843.977 541.651 842.863 542.422 841.331 542.516C840.3 542.464 839.498 542.307 838.925 542.047C837.342 541.464 835.915 540.5 834.644 539.156C831.988 540.219 829.019 541.13 825.738 541.891C825.3 540.995 824.852 540.276 824.394 539.734ZM825.175 543.672H844.738V545.859H838.206V552.766C838.206 553.766 838.602 554.266 839.394 554.266H840.769C841.769 554.266 842.363 553.755 842.55 552.734C842.717 551.797 842.863 550.495 842.988 548.828C843.779 549.203 844.55 549.516 845.3 549.766C845.092 551.37 844.883 552.641 844.675 553.578C844.342 555.453 843.217 556.391 841.3 556.391H838.8C836.842 556.391 835.863 555.245 835.863 552.953V545.859H831.644C831.467 551.172 829.154 554.995 824.706 557.328C824.269 556.62 823.748 555.922 823.144 555.234C827.113 553.359 829.165 550.234 829.3 545.859H825.175V543.672ZM818.644 544.859C820.185 544.734 822.123 544.536 824.456 544.266C824.352 544.911 824.269 545.651 824.206 546.484C821.373 546.693 818.644 546.984 816.019 547.359L815.581 545.266C817.008 543.755 818.524 541.625 820.128 538.875C818.316 538.99 816.738 539.109 815.394 539.234L814.8 537.234C816.738 534.214 818.498 530.63 820.081 526.484L822.519 527.359C820.956 530.547 819.269 533.776 817.456 537.047C818.644 536.995 819.92 536.922 821.284 536.828C821.857 535.766 822.446 534.62 823.05 533.391L825.3 534.391C823.238 538.161 821.019 541.651 818.644 544.859ZM814.581 551.234C817.894 550.818 821.456 550.297 825.269 549.672C825.165 550.38 825.092 551.13 825.05 551.922C820.883 552.526 817.581 553.078 815.144 553.578L814.581 551.234ZM857.681 555.578V553.328H861.4V528.297H876.525V553.328H879.275V555.578H857.681ZM852.556 544.484C854.681 544.214 856.9 543.932 859.213 543.641C859.129 544.536 859.056 545.245 858.994 545.766C855.91 546.161 852.817 546.589 849.713 547.047L849.213 544.766C850.535 543.734 852.176 541.578 854.134 538.297C851.843 538.443 850.129 538.568 848.994 538.672L848.369 536.609C849.994 534.651 851.775 531.297 853.713 526.547L856.244 527.422C854.431 530.839 852.723 533.839 851.119 536.422C852.838 536.411 854.213 536.391 855.244 536.359C856.077 534.87 856.963 533.193 857.9 531.328L860.306 532.391C857.931 536.599 855.348 540.63 852.556 544.484ZM874.15 530.547H863.775V536.703H874.15V530.547ZM863.775 553.328H874.15V547.172H863.775V553.328ZM863.775 545.016H874.15V538.859H863.775V545.016ZM848.619 551.547C851.64 550.984 855.265 550.234 859.494 549.297C859.41 550.255 859.369 551.047 859.369 551.672C855.035 552.568 851.681 553.318 849.306 553.922L848.619 551.547ZM881.906 553.766H886.156V534.297H895.812V531.422H882.531V529.234H895.812V526.359H898.312V529.234H912.188V531.422H898.312V534.297H908.312V553.766H912.781V555.953H881.906V553.766ZM888.562 553.766H905.906V550.891H888.562V553.766ZM905.906 536.359H888.562V539.203H905.906V536.359ZM888.562 548.891H905.906V546.047H888.562V548.891ZM888.562 544.047H905.906V541.203H888.562V544.047ZM939.975 534.297C941.6 536.172 943.402 538.453 945.381 541.141C944.61 541.62 943.86 542.109 943.131 542.609C942.61 541.849 942.105 541.12 941.616 540.422C936.501 540.651 931.798 540.88 927.506 541.109C926.84 541.13 926.006 541.255 925.006 541.484L923.944 539.141C924.715 538.745 925.444 538.266 926.131 537.703C927.746 536.328 929.35 534.63 930.944 532.609H924.006V530.391H933.928C933.136 529.161 932.381 528.089 931.663 527.172L933.725 525.891C934.496 526.87 935.371 528.016 936.35 529.328L934.725 530.391H945.35V532.609H931.538L933.6 533.484C931.663 535.568 929.85 537.318 928.163 538.734C931.527 538.63 935.511 538.495 940.116 538.328C939.386 537.349 938.694 536.443 938.038 535.609L939.975 534.297ZM938.319 542.453H940.663V552.922C940.663 553.88 941.038 554.359 941.788 554.359H942.881C943.527 554.359 943.933 553.828 944.1 552.766C944.246 551.641 944.34 550.328 944.381 548.828C945.11 549.161 945.892 549.464 946.725 549.734C946.579 551.484 946.423 552.828 946.256 553.766C946.006 555.62 945.017 556.547 943.288 556.547H941.35C939.329 556.547 938.319 555.328 938.319 552.891V542.453ZM926.444 542.578H928.819C928.819 547.141 928.392 550.339 927.538 552.172C926.683 554.193 924.954 555.911 922.35 557.328C921.871 556.557 921.34 555.87 920.756 555.266C923.131 554.016 924.642 552.578 925.288 550.953C926.058 549.37 926.444 546.578 926.444 542.578ZM916.288 556.078C917.538 552.411 918.621 548.37 919.538 543.953C920.454 544.349 921.298 544.672 922.069 544.922C921.131 548.526 920.121 552.526 919.038 556.922L916.288 556.078ZM932.6 542.578H934.944V556.516H932.6V542.578ZM915.319 536.766L916.881 534.953C918.569 536.12 920.34 537.464 922.194 538.984C921.444 539.859 920.84 540.536 920.381 541.016C918.215 539.078 916.527 537.661 915.319 536.766ZM916.538 528.609L918.131 526.953C919.652 528.161 921.35 529.599 923.225 531.266L921.381 533.109C919.652 531.359 918.038 529.859 916.538 528.609ZM950.544 530.516H962.075V526.516H964.669V530.516H976.231V548.078H964.669V551.734C964.669 553.005 965.335 553.641 966.669 553.641H973.981C975.398 553.641 976.262 553.172 976.575 552.234C976.908 551.214 977.148 549.745 977.294 547.828C977.898 548.099 978.762 548.422 979.887 548.797C979.637 550.464 979.356 551.891 979.044 553.078C978.523 555.036 977.106 556.016 974.794 556.016H966.481C963.544 556.016 962.075 554.578 962.075 551.703V548.078H953.137V550.234H950.544V530.516ZM973.637 545.734V540.391H964.669V545.734H973.637ZM953.137 545.734H962.075V540.391H953.137V545.734ZM973.637 532.859H964.669V538.172H973.637V532.859ZM953.137 538.172H962.075V532.859H953.137V538.172ZM991.613 553.609H995.613V528.359H1010.55V553.609H1013.55V555.828H991.613V553.609ZM993.425 545.141C994.029 549.161 993.04 551.391 990.456 551.828C989.519 551.995 988.467 552.016 987.3 551.891C987.133 551.036 986.904 550.161 986.613 549.266C987.717 549.516 988.675 549.599 989.488 549.516C990.946 549.37 991.425 547.88 990.925 545.047C990.633 543.359 989.696 541.484 988.113 539.422C989.029 536.339 989.883 533.307 990.675 530.328H986.488V557.203H984.113V528.141H993.269V530.328C992.29 533.536 991.394 536.432 990.581 539.016C992.248 541.286 993.196 543.328 993.425 545.141ZM998.05 545.203H1008.11V538.984H998.05V545.203ZM998.05 553.609H1008.11V547.391H998.05V553.609ZM998.05 530.578V536.797H1008.11V530.578H998.05ZM1023.37 558.5C1019.86 554.5 1018.1 549.589 1018.1 543.766C1018.1 537.943 1019.86 532.953 1023.37 528.797H1026.07C1022.55 533.12 1020.79 538.099 1020.79 543.734C1020.79 549.359 1022.54 554.281 1026.04 558.5H1023.37ZM1030.88 529.547H1057.06V532.234H1030.88V529.547ZM1028.94 552.172H1059.12V554.797H1028.94V552.172ZM1032.28 540.266H1055.66V542.922H1032.28V540.266ZM1075.29 528.547H1091.73V557.109H1089.35V554.984H1077.66V557.109H1075.29V528.547ZM1062.07 545.953C1064.37 542.745 1066.09 539.057 1067.24 534.891H1062.44V532.797H1067.29V526.578H1069.57V532.797H1074.13V534.891H1069.57V540.328L1070.82 539.047C1072.26 540.443 1073.58 541.786 1074.79 543.078L1073.1 544.734C1071.95 543.38 1070.78 542.062 1069.57 540.781V557.047H1067.29V540.781C1066.16 543.875 1064.8 546.505 1063.19 548.672C1062.88 547.776 1062.51 546.87 1062.07 545.953ZM1077.66 552.859H1089.35V546.797H1077.66V552.859ZM1089.35 530.672H1077.66V536.672H1089.35V530.672ZM1077.66 544.734H1089.35V538.734H1077.66V544.734ZM1095.59 558.5C1099.1 554.292 1100.86 549.37 1100.86 543.734C1100.86 538.089 1099.09 533.109 1095.56 528.797H1098.28C1101.8 532.922 1103.56 537.911 1103.56 543.766C1103.56 549.62 1101.8 554.531 1098.28 558.5H1095.59Z" fill="#3C3C3C"/>
<rect x="1269" y="479" width="441" height="122" rx="5" fill="#F0F4F9"/>
<path d="M1383.57 528.953C1389.55 528.953 1395.75 528.516 1402.17 527.641L1403.04 529.984C1400.17 530.255 1397.38 530.479 1394.68 530.656C1394.74 533.573 1394.84 536.234 1394.98 538.641H1403.45V540.891H1395.15C1395.77 548.13 1397.42 552.453 1400.11 553.859C1400.69 554.109 1401.06 553.891 1401.23 553.203C1401.42 552.141 1401.6 550.578 1401.76 548.516C1402.57 548.891 1403.32 549.172 1404.01 549.359C1403.8 551.318 1403.57 552.932 1403.32 554.203C1402.97 555.828 1402.16 556.641 1400.89 556.641C1399.35 556.641 1397.88 555.724 1396.48 553.891C1394.49 551.151 1393.27 546.818 1392.81 540.891H1385.95V551.953C1388.2 550.661 1390.14 549.547 1391.76 548.609C1391.89 549.568 1392.04 550.37 1392.23 551.016C1389.56 552.536 1387.46 553.786 1385.92 554.766C1385.31 555.161 1384.72 555.63 1384.14 556.172L1382.51 554.109C1383.22 553.505 1383.57 552.609 1383.57 551.422V528.953ZM1372.39 541.016C1375.6 536.682 1378.09 531.786 1379.86 526.328L1382.14 527.141C1381.11 530.016 1379.97 532.672 1378.73 535.109V557.141H1376.48V539.109C1375.46 540.745 1374.39 542.255 1373.26 543.641C1373.01 542.807 1372.72 541.932 1372.39 541.016ZM1392.28 530.797C1390.11 530.922 1388 531.016 1385.95 531.078V538.641H1392.67C1392.55 536.609 1392.42 533.995 1392.28 530.797ZM1389.86 553.578L1391.48 552.297C1392.65 553.401 1393.79 554.578 1394.92 555.828L1393.11 557.297C1392.13 556.068 1391.04 554.828 1389.86 553.578ZM1407.83 530.516H1419.36V526.516H1421.96V530.516H1433.52V548.078H1421.96V551.734C1421.96 553.005 1422.62 553.641 1423.96 553.641H1431.27C1432.69 553.641 1433.55 553.172 1433.86 552.234C1434.2 551.214 1434.44 549.745 1434.58 547.828C1435.19 548.099 1436.05 548.422 1437.17 548.797C1436.92 550.464 1436.64 551.891 1436.33 553.078C1435.81 555.036 1434.39 556.016 1432.08 556.016H1423.77C1420.83 556.016 1419.36 554.578 1419.36 551.703V548.078H1410.42V550.234H1407.83V530.516ZM1430.92 545.734V540.391H1421.96V545.734H1430.92ZM1410.42 545.734H1419.36V540.391H1410.42V545.734ZM1430.92 532.859H1421.96V538.172H1430.92V532.859ZM1410.42 538.172H1419.36V532.859H1410.42V538.172ZM1446.21 552.984H1457.09V541.922H1448.49V539.578H1457.09V532.609H1459.71V539.578H1469.37V541.922H1459.71V552.984H1470.65V555.297H1446.21V552.984ZM1446.21 539.141C1446.21 543.786 1445.92 547.286 1445.34 549.641C1444.73 552.078 1443.57 554.536 1441.84 557.016C1441.34 556.411 1440.69 555.714 1439.9 554.922C1441.44 552.63 1442.43 550.516 1442.87 548.578C1443.35 546.661 1443.59 543.714 1443.59 539.734V528.672H1470.49V531.047H1446.21V539.141ZM1462.34 545.422L1464.09 543.984C1465.67 545.609 1467.24 547.297 1468.81 549.047L1466.74 550.703C1464.76 548.266 1463.3 546.505 1462.34 545.422ZM1486.59 533.922H1502.22V545.297H1499.94V544.422H1488.88V545.297H1486.59V533.922ZM1473.41 540.047H1478.66V533.266H1477.09C1476.58 534.797 1476.05 536.182 1475.5 537.422C1474.62 537.068 1473.9 536.797 1473.31 536.609C1474.67 533.609 1475.79 530.172 1476.69 526.297L1478.94 526.766C1478.56 528.307 1478.17 529.755 1477.77 531.109H1484.94V533.266H1480.91V540.047H1485.38V542.203H1480.86C1480.81 543.411 1480.7 544.568 1480.53 545.672L1482.09 544.828C1483.34 546.807 1484.61 549.026 1485.91 551.484L1483.62 552.734C1482.71 550.724 1481.63 548.646 1480.39 546.5C1479.58 550.927 1477.79 554.484 1475.03 557.172C1474.61 556.609 1474.08 555.953 1473.44 555.203C1476.57 551.995 1478.29 547.661 1478.59 542.203H1473.41V540.047ZM1499.94 536.078H1488.88V542.266H1499.94V536.078ZM1484.19 553.766H1495.31C1496.78 550.995 1498.01 548.422 1499 546.047L1501.56 547.234C1500.29 549.547 1499.06 551.724 1497.88 553.766H1504.34V555.953H1484.19V553.766ZM1485.19 527.953H1503.97V530.141H1485.19V527.953ZM1487.53 547.078L1489.62 545.953C1490.85 547.953 1491.96 549.901 1492.94 551.797L1490.59 553.016C1489.57 550.849 1488.55 548.87 1487.53 547.078ZM1509.01 540.922H1511.07V552.469C1511.91 552.344 1512.78 552.214 1513.66 552.078V537.797H1511.16V538.828H1508.91V528.234H1519.16V537.797H1515.85V543.078H1519.1V545.203H1515.85V551.75C1517.15 551.542 1518.49 551.318 1519.85 551.078C1519.81 551.786 1519.79 552.547 1519.79 553.359C1515.72 554.047 1511.7 554.734 1507.72 555.422L1507.1 552.984C1507.72 552.911 1508.36 552.833 1509.01 552.75V540.922ZM1519.47 535.859C1521.66 533.172 1523.56 529.953 1525.16 526.203L1527.47 527.047C1527.03 527.984 1526.58 528.88 1526.13 529.734H1536.01V531.828C1534.64 534.401 1532.83 536.776 1530.58 538.953C1532.64 540.359 1535.16 541.411 1538.16 542.109C1537.75 543.026 1537.4 543.891 1537.13 544.703C1533.86 543.589 1531.08 542.188 1528.8 540.5C1526.53 542.26 1523.78 543.828 1520.54 545.203C1520.33 544.786 1519.91 544.047 1519.29 542.984C1522.11 541.974 1524.67 540.62 1526.96 538.922C1525.7 537.672 1524.56 536.104 1523.55 534.219C1522.71 535.521 1521.87 536.682 1521.04 537.703C1520.54 537.036 1520.02 536.422 1519.47 535.859ZM1521.79 545.078H1535.38V557.234H1533.04V555.734H1524.13V557.234H1521.79V545.078ZM1533.04 547.266H1524.13V553.547H1533.04V547.266ZM1516.91 535.672V530.359H1511.16V535.672H1516.91ZM1533.32 531.859H1524.97C1524.91 531.964 1524.85 532.068 1524.79 532.172C1525.84 534.286 1527.15 536.057 1528.72 537.484C1530.6 535.807 1532.13 533.932 1533.32 531.859ZM1549.7 553.609H1553.7V528.359H1568.64V553.609H1571.64V555.828H1549.7V553.609ZM1551.51 545.141C1552.12 549.161 1551.13 551.391 1548.54 551.828C1547.61 551.995 1546.55 552.016 1545.39 551.891C1545.22 551.036 1544.99 550.161 1544.7 549.266C1545.8 549.516 1546.76 549.599 1547.57 549.516C1549.03 549.37 1549.51 547.88 1549.01 545.047C1548.72 543.359 1547.78 541.484 1546.2 539.422C1547.12 536.339 1547.97 533.307 1548.76 530.328H1544.57V557.203H1542.2V528.141H1551.36V530.328C1550.38 533.536 1549.48 536.432 1548.67 539.016C1550.34 541.286 1551.28 543.328 1551.51 545.141ZM1556.14 545.203H1566.2V538.984H1556.14V545.203ZM1556.14 553.609H1566.2V547.391H1556.14V553.609ZM1556.14 530.578V536.797H1566.2V530.578H1556.14ZM1589.99 539.828V544.359C1589.99 550.026 1587.96 554.349 1583.89 557.328C1583.6 556.932 1582.99 556.318 1582.05 555.484C1585.72 552.943 1587.55 549.255 1587.55 544.422V537.578H1599.33V553.266C1599.33 553.974 1599.7 554.328 1600.43 554.328H1601.49C1602.32 554.328 1602.8 553.672 1602.93 552.359C1603.01 551.547 1603.1 550.224 1603.21 548.391C1604.04 548.766 1604.82 549.089 1605.55 549.359C1605.43 550.88 1605.29 552.161 1605.14 553.203C1604.87 555.453 1603.75 556.578 1601.77 556.578H1599.61C1597.8 556.578 1596.89 555.62 1596.89 553.703V539.828H1589.99ZM1574.68 532.797H1578.71V526.672H1581.11V532.797H1584.55V534.953H1581.11V540.984C1582.36 540.599 1583.62 540.203 1584.89 539.797C1584.89 540.776 1584.91 541.589 1584.96 542.234C1583.65 542.641 1582.37 543.047 1581.11 543.453V553.203C1581.11 555.536 1580.06 556.714 1577.96 556.734C1577.25 556.755 1576.26 556.755 1574.99 556.734C1574.86 555.859 1574.73 554.974 1574.58 554.078C1575.75 554.203 1576.68 554.266 1577.36 554.266C1578.26 554.266 1578.71 553.786 1578.71 552.828V544.234C1577.31 544.693 1575.94 545.151 1574.58 545.609L1574.27 543.016C1575.74 542.599 1577.22 542.167 1578.71 541.719V534.953H1574.68V532.797ZM1585.18 531.203H1593.43C1592.65 529.599 1591.97 528.286 1591.36 527.266L1593.55 526.203C1594.45 527.703 1595.19 529.047 1595.77 530.234L1593.74 531.203H1603.93V533.453H1585.18V531.203Z" fill="#3C3C3C"/>
<rect x="1269" y="262" width="441" height="122" rx="5" fill="#F0F4F9"/>
<path d="M1376.39 327.828V325.672H1397.64V327.828C1395.66 330.432 1393.28 332.641 1390.5 334.453C1393.88 336.078 1398.3 337.089 1403.76 337.484C1403.01 338.526 1402.41 339.401 1401.95 340.109C1396.37 339.349 1391.75 337.922 1388.09 335.828C1384.57 337.641 1379.98 339.141 1374.32 340.328C1373.8 339.516 1373.27 338.745 1372.73 338.016C1378.18 337.078 1382.55 335.859 1385.84 334.359C1383.57 332.661 1381.61 330.484 1379.97 327.828H1376.39ZM1373.36 313.328H1387.61C1386.96 312.161 1386.37 311.151 1385.82 310.297L1388.07 309.203C1389.1 310.786 1389.8 311.953 1390.2 312.703L1389 313.328H1403.2V315.547H1393.11V324.234H1390.7V315.547H1385.67V324.297H1383.26V315.547H1373.36V313.328ZM1394.57 327.828H1382.78C1384.31 330.099 1386.11 331.87 1388.18 333.141C1390.68 331.661 1392.81 329.891 1394.57 327.828ZM1394.98 318.828L1396.7 317.359C1399.37 319.755 1401.55 321.87 1403.26 323.703L1401.32 325.422C1399.3 323.151 1397.19 320.953 1394.98 318.828ZM1379.11 317.297L1380.98 318.891C1378.86 321.328 1376.76 323.536 1374.7 325.516C1374.18 324.932 1373.57 324.349 1372.89 323.766C1375.07 321.891 1377.15 319.734 1379.11 317.297ZM1412.61 335.984H1423.49V324.922H1414.89V322.578H1423.49V315.609H1426.11V322.578H1435.77V324.922H1426.11V335.984H1437.05V338.297H1412.61V335.984ZM1412.61 322.141C1412.61 326.786 1412.32 330.286 1411.74 332.641C1411.13 335.078 1409.97 337.536 1408.24 340.016C1407.74 339.411 1407.09 338.714 1406.3 337.922C1407.84 335.63 1408.83 333.516 1409.27 331.578C1409.75 329.661 1409.99 326.714 1409.99 322.734V311.672H1436.89V314.047H1412.61V322.141ZM1428.74 328.422L1430.49 326.984C1432.07 328.609 1433.64 330.297 1435.21 332.047L1433.14 333.703C1431.16 331.266 1429.7 329.505 1428.74 328.422ZM1440.9 322.547H1453.52C1453.85 321.766 1454.06 320.859 1454.15 319.828L1456.4 320.141C1456.27 321.016 1456.09 321.818 1455.85 322.547H1462.67C1461.83 321.943 1460.95 321.349 1460.02 320.766L1461.31 319.359C1462.68 320.172 1463.92 320.984 1465.02 321.797L1464.32 322.547H1470.15V324.609H1458.09C1460.49 326.964 1464.76 328.078 1470.9 327.953C1470.4 328.807 1469.97 329.609 1469.62 330.359C1469.07 330.318 1468.54 330.271 1468.02 330.219V339.766H1465.84V338.047H1459.15V339.734H1456.96V330.078H1466.92C1460.96 329.276 1457.15 327.453 1455.49 324.609H1454.93C1453.76 327.089 1449.98 328.911 1443.59 330.078H1453.59V339.734H1451.4V338.047H1444.81V339.766H1442.62V330.266C1442.07 330.37 1441.49 330.474 1440.9 330.578C1440.59 329.953 1440.18 329.214 1439.68 328.359C1446.64 327.464 1450.82 326.214 1452.21 324.609H1440.9V322.547ZM1456.93 311.172H1467.99V320.391H1465.81V319.297H1459.12V320.266H1456.93V311.172ZM1442.59 311.172H1453.56V320.266H1451.37V319.297H1444.77V320.578H1442.59V311.172ZM1465.81 313.109H1459.12V317.359H1465.81V313.109ZM1451.37 313.109H1444.77V317.359H1451.37V313.109ZM1465.84 332.016H1459.15V336.109H1465.84V332.016ZM1451.4 332.016H1444.81V336.109H1451.4V332.016ZM1477.19 327.828V325.672H1498.44V327.828C1496.46 330.432 1494.08 332.641 1491.3 334.453C1494.68 336.078 1499.1 337.089 1504.56 337.484C1503.81 338.526 1503.21 339.401 1502.75 340.109C1497.17 339.349 1492.55 337.922 1488.89 335.828C1485.37 337.641 1480.78 339.141 1475.12 340.328C1474.6 339.516 1474.07 338.745 1473.53 338.016C1478.98 337.078 1483.35 335.859 1486.64 334.359C1484.37 332.661 1482.41 330.484 1480.77 327.828H1477.19ZM1474.16 313.328H1488.41C1487.76 312.161 1487.17 311.151 1486.62 310.297L1488.88 309.203C1489.9 310.786 1490.6 311.953 1491 312.703L1489.8 313.328H1504V315.547H1493.91V324.234H1491.5V315.547H1486.47V324.297H1484.06V315.547H1474.16V313.328ZM1495.38 327.828H1483.58C1485.11 330.099 1486.91 331.87 1488.98 333.141C1491.48 331.661 1493.61 329.891 1495.38 327.828ZM1495.78 318.828L1497.5 317.359C1500.17 319.755 1502.35 321.87 1504.06 323.703L1502.12 325.422C1500.1 323.151 1497.99 320.953 1495.78 318.828ZM1479.91 317.297L1481.78 318.891C1479.66 321.328 1477.56 323.536 1475.5 325.516C1474.98 324.932 1474.38 324.349 1473.69 323.766C1475.88 321.891 1477.95 319.734 1479.91 317.297ZM1522.72 309.422H1525.32V322.641C1529.37 319.714 1532.7 316.651 1535.32 313.453L1537.54 315.109C1534.16 318.828 1530.09 322.365 1525.32 325.719V334.766C1525.32 336.141 1525.92 336.828 1527.13 336.828H1532.47C1533.85 336.828 1534.64 336.214 1534.85 334.984C1535.1 333.401 1535.29 331.661 1535.41 329.766C1536.29 330.099 1537.18 330.401 1538.1 330.672C1537.91 332.609 1537.66 334.349 1537.35 335.891C1536.91 338.036 1535.53 339.109 1533.19 339.109H1526.32C1523.92 339.109 1522.72 337.807 1522.72 335.203V309.422ZM1511.91 310.234V319.609H1520.72V321.953H1511.91V335.234C1514.08 334.318 1516.91 333.026 1520.41 331.359C1520.41 332.339 1520.45 333.276 1520.54 334.172C1517.47 335.401 1514.88 336.557 1512.76 337.641C1511.84 338.12 1511 338.693 1510.22 339.359L1508.32 336.922C1508.99 336.422 1509.32 335.661 1509.32 334.641V310.234H1511.91ZM1544.57 327.234C1545.57 327.755 1546.4 328.141 1547.04 328.391C1545.65 333.599 1544.64 337.443 1544.01 339.922L1541.45 338.734C1542.68 335.255 1543.72 331.422 1544.57 327.234ZM1543.39 310.172C1544.66 311.234 1546.24 312.672 1548.14 314.484C1547.45 315.151 1546.82 315.776 1546.26 316.359C1544.74 314.672 1543.24 313.13 1541.76 311.734L1543.39 310.172ZM1541.98 318.203C1543.73 319.62 1545.39 321.026 1546.95 322.422C1546.41 322.984 1545.8 323.641 1545.14 324.391C1543.26 322.536 1541.7 321.047 1540.45 319.922L1541.98 318.203ZM1568.07 309.578H1570.36V336.172C1570.36 338.568 1569.2 339.766 1566.89 339.766C1565.89 339.766 1564.7 339.745 1563.32 339.703C1563.24 338.932 1563.1 338.078 1562.89 337.141C1564.22 337.286 1565.36 337.359 1566.29 337.359C1567.48 337.359 1568.07 336.766 1568.07 335.578V309.578ZM1565.39 332.828H1563.2V312.109H1565.39V332.828ZM1548.73 311.297H1560.51V331.047H1558.26V313.484H1550.98V331.047H1548.73V311.297ZM1553.61 316.172H1555.89V323.922C1555.89 327.089 1555.6 329.63 1555.01 331.547C1557.72 333.63 1560.07 335.505 1562.07 337.172L1560.39 339.078C1558.72 337.495 1556.66 335.682 1554.2 333.641C1552.91 336.203 1550.59 338.464 1547.23 340.422C1546.77 339.755 1546.26 339.089 1545.7 338.422C1548.8 336.63 1550.93 334.641 1552.07 332.453C1553.1 330.557 1553.61 327.734 1553.61 323.984V316.172ZM1574.36 337.391H1588.71V335.609H1576.18V333.984H1588.71V332.203H1581.27V333.016H1579.14V323.422H1600.55V333.016H1598.43V332.203H1590.89V333.984H1603.46V335.609H1590.89V337.391H1605.24V339.078H1574.36V337.391ZM1579.39 310.641H1600.33V319.578H1598.21V318.734H1581.52V319.578H1579.39V310.641ZM1574.61 320.234H1605.11V321.922H1574.61V320.234ZM1581.52 317.109H1598.21V315.422H1581.52V317.109ZM1598.21 312.266H1581.52V313.922H1598.21V312.266ZM1590.89 330.578H1598.43V328.547H1590.89V330.578ZM1581.27 330.578H1588.71V328.547H1581.27V330.578ZM1598.43 325.047H1590.89V327.047H1598.43V325.047ZM1581.27 327.047H1588.71V325.047H1581.27V327.047Z" fill="#3C3C3C"/>
<rect x="211" y="696" width="441" height="122" rx="5" fill="#F0F4F9"/>
<path d="M340.281 774.078H337.812V757.906C336.302 759.667 334.635 761.359 332.812 762.984C332.375 762.255 331.875 761.495 331.312 760.703C335.333 757.339 338.474 753.609 340.734 749.516H332.188V747.203H341.906C342.5 745.901 343.01 744.568 343.438 743.203L346.031 743.797C345.615 744.953 345.156 746.089 344.656 747.203H362.312V749.516H343.531C342.885 750.745 342.177 751.943 341.406 753.109H358.531V769.797C358.531 772.38 357.271 773.672 354.75 773.672C353.646 773.693 351.969 773.703 349.719 773.703C349.615 772.995 349.458 772.141 349.25 771.141C351.167 771.286 352.708 771.359 353.875 771.359C355.312 771.359 356.031 770.651 356.031 769.234V767.016H340.281V774.078ZM340.281 764.891H356.031V761.141H340.281V764.891ZM356.031 755.297H340.281V759.016H356.031V755.297ZM379.006 772.078C381.475 770.391 383.694 768.354 385.662 765.969C384.6 762.76 383.923 758.714 383.631 753.828H365.225V751.734H373.006V748.828H366.506V746.859H373.006V743.672H375.319V746.859H381.475V748.828H375.319V751.734H383.506C383.381 749.255 383.267 746.516 383.162 743.516H385.569C385.579 746.443 385.657 749.182 385.803 751.734H396.194V753.828H385.928C386.147 757.672 386.642 760.948 387.412 763.656C388.985 761.417 390.371 758.922 391.569 756.172L393.725 757.172C392.121 760.62 390.319 763.667 388.319 766.312C388.965 767.844 389.725 769.13 390.6 770.172C391.142 770.797 391.642 771.109 392.1 771.109C392.662 771.109 393.037 770.693 393.225 769.859C393.475 768.734 393.715 767.318 393.944 765.609C394.777 765.984 395.527 766.266 396.194 766.453C395.923 768.224 395.621 769.797 395.287 771.172C394.767 773.026 393.84 773.953 392.506 773.953C390.985 773.953 389.537 772.984 388.162 771.047C387.6 770.276 387.09 769.396 386.631 768.406C384.84 770.458 382.912 772.224 380.85 773.703C380.225 772.995 379.61 772.453 379.006 772.078ZM369.631 762.641H373.912V759.766H376.131V762.641H382.037V764.609H376.131V767.516C378.037 767.359 380.048 767.193 382.162 767.016C382.1 767.682 382.069 768.359 382.069 769.047C380.194 769.172 378.215 769.323 376.131 769.5V774.078H373.912V769.703C371.465 769.911 368.881 770.161 366.162 770.453L365.662 768.203C368.142 768.068 370.892 767.891 373.912 767.672V764.609H367.037V762.578C367.881 761.484 368.709 760.266 369.522 758.922H365.975V756.953H370.662C371.173 756.026 371.673 755.047 372.162 754.016L374.475 754.734C374.048 755.516 373.631 756.255 373.225 756.953H382.287V758.922H372.053C371.189 760.339 370.381 761.578 369.631 762.641ZM387.662 745.797L389.194 744.266C391.298 745.849 393.006 747.255 394.319 748.484L392.537 750.297C391.121 748.776 389.496 747.276 387.662 745.797ZM402.7 757.203H423.481C423.377 760.745 423.221 764.203 423.012 767.578C422.762 771.474 420.919 773.411 417.481 773.391C415.794 773.411 414.012 773.359 412.137 773.234C412.012 772.359 411.867 771.474 411.7 770.578C413.304 770.807 415.096 770.932 417.075 770.953C419.158 770.995 420.304 769.776 420.512 767.297C420.679 765.047 420.804 762.453 420.887 759.516H411.278C411.028 762.995 410.304 765.797 409.106 767.922C407.523 770.714 404.867 772.87 401.137 774.391C400.596 773.682 400.002 772.984 399.356 772.297C402.815 771.005 405.304 769.13 406.825 766.672C407.919 764.807 408.549 762.422 408.716 759.516H402.7V757.203ZM415.637 744.203L417.887 743.234C420.179 748.818 424.2 752.995 429.95 755.766C429.012 756.745 428.335 757.536 427.919 758.141C422.19 754.828 418.096 750.182 415.637 744.203ZM398.45 756.172C402.742 753.13 406.408 748.984 409.45 743.734L411.669 744.953C408.502 750.495 404.7 754.943 400.262 758.297C399.825 757.651 399.221 756.943 398.45 756.172ZM440.8 771.828C444.863 771.234 448.17 770.255 450.722 768.891C448.774 768.016 446.685 767.099 444.456 766.141C445.352 764.984 446.18 763.828 446.941 762.672H441.8V760.578H448.253C448.92 759.453 449.529 758.328 450.081 757.203L452.394 758.172C451.894 759.005 451.399 759.807 450.909 760.578H462.925V762.672H458.816C457.993 764.964 456.774 766.896 455.159 768.469C457.816 769.573 460.394 770.672 462.894 771.766L461.519 774.078C459.175 772.839 456.415 771.484 453.238 770.016C450.446 771.911 446.696 773.307 441.988 774.203C441.696 773.516 441.3 772.724 440.8 771.828ZM432.3 760.172C433.779 759.766 435.217 759.354 436.613 758.938V751.797H432.675V749.547H436.613V743.703H438.925V749.547H442.519V751.797H438.925V758.219C439.915 757.906 440.883 757.589 441.831 757.266C441.852 758.203 441.915 759.016 442.019 759.703C440.946 760.047 439.915 760.385 438.925 760.719V770.359C438.925 772.609 437.915 773.745 435.894 773.766C435.123 773.786 434.144 773.776 432.956 773.734C432.873 772.88 432.748 772.016 432.581 771.141C433.831 771.266 434.717 771.328 435.238 771.328C436.154 771.328 436.613 770.776 436.613 769.672V761.484C435.185 761.964 433.852 762.422 432.613 762.859L432.3 760.172ZM441.894 754.641H454.066C455.389 752.807 456.56 751.089 457.581 749.484L459.925 750.766C458.842 752.068 457.743 753.359 456.628 754.641H463.144V756.734H441.894V754.641ZM443.113 747.047H451.941C451.451 746.099 450.935 745.161 450.394 744.234L452.488 743.266C453.154 744.391 453.79 745.526 454.394 746.672L453.597 747.047H462.394V749.141H443.113V747.047ZM447.706 765.453C449.446 766.141 451.149 766.828 452.816 767.516C454.451 766.193 455.613 764.578 456.3 762.672H449.566C448.93 763.641 448.31 764.568 447.706 765.453ZM445.925 750.734L447.738 749.516C448.717 750.661 449.665 751.87 450.581 753.141L448.581 754.484C447.79 753.193 446.904 751.943 445.925 750.734ZM469.775 761.234C470.775 761.755 471.598 762.141 472.244 762.391C470.848 767.599 469.837 771.443 469.212 773.922L466.65 772.734C467.879 769.255 468.921 765.422 469.775 761.234ZM468.587 744.172C469.858 745.234 471.442 746.672 473.337 748.484C472.65 749.151 472.025 749.776 471.462 750.359C469.942 748.672 468.442 747.13 466.962 745.734L468.587 744.172ZM467.181 752.203C468.931 753.62 470.587 755.026 472.15 756.422C471.608 756.984 471.004 757.641 470.337 758.391C468.462 756.536 466.9 755.047 465.65 753.922L467.181 752.203ZM493.275 743.578H495.556V770.172C495.556 772.568 494.4 773.766 492.087 773.766C491.087 773.766 489.9 773.745 488.525 773.703C488.442 772.932 488.296 772.078 488.087 771.141C489.421 771.286 490.556 771.359 491.494 771.359C492.681 771.359 493.275 770.766 493.275 769.578V743.578ZM490.587 766.828H488.4V746.109H490.587V766.828ZM473.931 745.297H485.712V765.047H483.462V747.484H476.181V765.047H473.931V745.297ZM478.806 750.172H481.087V757.922C481.087 761.089 480.796 763.63 480.212 765.547C482.921 767.63 485.275 769.505 487.275 771.172L485.587 773.078C483.921 771.495 481.858 769.682 479.4 767.641C478.108 770.203 475.785 772.464 472.431 774.422C471.973 773.755 471.462 773.089 470.9 772.422C474.004 770.63 476.129 768.641 477.275 766.453C478.296 764.557 478.806 761.734 478.806 757.984V750.172ZM499.562 771.391H513.906V769.609H501.375V767.984H513.906V766.203H506.469V767.016H504.344V757.422H525.75V767.016H523.625V766.203H516.094V767.984H528.656V769.609H516.094V771.391H530.438V773.078H499.562V771.391ZM504.594 744.641H525.531V753.578H523.406V752.734H506.719V753.578H504.594V744.641ZM499.812 754.234H530.312V755.922H499.812V754.234ZM506.719 751.109H523.406V749.422H506.719V751.109ZM523.406 746.266H506.719V747.922H523.406V746.266ZM516.094 764.578H523.625V762.547H516.094V764.578ZM506.469 764.578H513.906V762.547H506.469V764.578ZM523.625 759.047H516.094V761.047H523.625V759.047ZM506.469 761.047H513.906V759.047H506.469V761.047Z" fill="#3C3C3C"/>
<defs>
<clipPath id="clip0_2797_32580">
<rect x="211" y="262" width="441" height="122" rx="5" fill="white"/>
</clipPath>
</defs>
</svg>
